# xmcd CD database file
#
# Track frame offsets:
#	150
#	16511
#	35850
#	51419
#	63591
#	78035
#	92257
#	109574
#	126421
#	138814
#	154791
#	169189
#	185805
#	200177
#	215209
#	233129
#	251003
#	265817
#	280355
#
# Disc length: 3908 seconds
#
# Revision: 0
# Processed by: cddbd v1.5.2PL0 Copyright (c) Steve Scherf et al.
# Submitted via: CDex 1.70beta2
#
DISCID=160f4213
DTITLE=Various Artist - NU COUNTRY TRAXX 177
DYEAR=2014
DGENRE=Country
TTITLE0=Doin' What She Likes - Blake Shelton
TTITLE1=Cop Car - Keith Urban
TTITLE2=The Mona Lisa - Brad Paisley
TTITLE3=Keep Them Kisses Comin' - Craig Campbell
TTITLE4=Who I Am With You - Chris Young
TTITLE5=Get Me Some Of That - Thomas Rhett
TTITLE6=Young Love - Kip Moore
TTITLE7=The South - The Cadillac Three ft. Florida Georgia Line, Dierks Bentley and Mike Eli (Big Machine) 
TTITLE8=Trippin On Us - Lindsay Ell
TTITLE9=Why God Made Love Songs - Joel Crouse
TTITLE10=She's A Trainwreck - Michelle Cupit
TTITLE11=Sunshine - Court Yard Hounds 
TTITLE12=Ready Set Roll - Chase Rice
TTITLE13=Always Tonight - Wyatt
TTITLE14=You Can't Make Old Friends - Kenny Rogers Duet with Dolly Parton
TTITLE15=Girls Will Be Girls - Shelly Lynn
TTITLE16=Our Soundtrack - Wes Mack
TTITLE17=You Will - Kylee Epp
TTITLE18=Dance With The Wind - Mike Aiken
EXTD=YEAR: 2014
EXTT0=
EXTT1=
EXTT2=
EXTT3=
EXTT4=
EXTT5=
EXTT6=
EXTT7=
EXTT8=
EXTT9=
EXTT10=
EXTT11=
EXTT12=
EXTT13=
EXTT14=
EXTT15=
EXTT16=
EXTT17=
EXTT18=
PLAYORDER=
